<svg width="100" height="100" viewBox="0 0 100 100" fill="none" xmlns="http://www.w3.org/2000/svg">
<path d="M30 18.0887C30 14.0968 37.92 7 48.04 7C59.92 7 63 12.7661 63 18.0887C63 25.629 57.72 28.6051 48.04 28.2903C39.68 28.0185 33.96 33.1694 33.96 38.9355C33.96 43.8145 39.24 48.6935 48.04 48.6935C52.7333 48.6935 62.032 46.7419 61.68 38.9355" stroke="white" stroke-width="6"/>
<ellipse cx="47.6" cy="59.3388" rx="2.64" ry="2.66129" fill="white"/>
<path d="M67.072 36.9848C68.533 33.3903 77.5389 29.6048 85.7274 32.9333C95.3399 36.8405 95.7216 43.0456 93.7735 47.8383C91.0136 54.628 85.6521 55.5712 77.9349 52.104C71.27 49.1097 64.7565 51.8665 62.646 57.0586C60.8602 61.4519 63.3467 67.5817 70.4671 70.476C74.2647 72.0196 82.5029 73.3206 85.0753 66.1755" stroke="white" stroke-width="6"/>
<ellipse cx="66.2149" cy="79.9167" rx="2.30585" ry="2.58675" transform="rotate(22.1206 66.2149 79.9167)" fill="white"/>
<path d="M7.10809 61.5003C6.38548 58.6138 10.3567 52.1667 17.0724 50.4854C24.9561 48.5118 28.0438 52.1694 29.0072 56.018C30.3721 61.4701 27.407 64.4992 20.9263 65.8797C15.3293 67.072 12.4658 71.7467 13.5096 75.916C14.3927 79.4438 18.7798 82.0945 24.6196 80.6326C27.7341 79.8528 33.5515 76.8969 31.9048 71.3108" stroke="white" stroke-width="6"/>
<ellipse cx="26.2545" cy="88.4027" rx="1.806" ry="1.98367" transform="rotate(-14.0548 26.2545 88.4027)" fill="white"/>
</svg>
