<svg width="120" height="100" viewBox="0 0 120 100" fill="none" xmlns="http://www.w3.org/2000/svg">
<rect width="120" height="100" fill="#E5E5E5"/>
<g id="continue_button">
<rect width="120" height="100" fill="white"/>
<path id="light-1" d="M58.6564 45.4205C60.614 46.5831 60.614 49.4169 58.6564 50.5795L15.0318 76.4857C13.032 77.6733 10.5 76.2321 10.5 73.9063L10.5 22.0937C10.5 19.7679 13.032 18.3267 15.0318 19.5143L58.6564 45.4205Z" fill="#EC3A70" fill-opacity="0.66"/>
<g id="dark">
<path id="dark-1" d="M73.6563 45.4205C75.6139 46.5831 75.6139 49.4169 73.6563 50.5795L30.0317 76.4857C28.032 77.6733 25.4999 76.2321 25.4999 73.9063L25.4999 22.0937C25.4999 19.7679 28.032 18.3267 30.0317 19.5143L73.6563 45.4205Z" fill="#E50046" fill-opacity="0.6"/>
<path id="dark-2" d="M58.6564 45.4205C60.614 46.5831 60.614 49.4169 58.6564 50.5795L15.0318 76.4857C13.032 77.6733 10.5 76.2321 10.5 73.9063L10.5 22.0937C10.5 19.7679 13.032 18.3267 15.0318 19.5143L58.6564 45.4205Z" fill="#E50046" fill-opacity="0.8"/>
</g>
</g>
</svg>
