<svg width="100" height="100" viewBox="0 0 100 100" fill="none" xmlns="http://www.w3.org/2000/svg">
<path d="M50.0022 50V1C62.1588 1 73.8814 5.51893 82.8925 13.6788L50.0022 50Z" fill="#95C11E" stroke="white"/>
<path d="M50.0022 49.9999L82.8925 13.6787C102.952 31.8435 104.488 62.8306 86.3234 82.8902C68.521 102.55 38.3081 104.476 18.1529 87.2372L50.0022 49.9999Z" fill="#AED14F" stroke="white"/>
<path d="M50.0022 49.9999L18.1529 87.2373C-0.183868 71.5538 -4.37375 44.8554 8.27726 24.3088L50.0022 49.9999Z" fill="#DB8CA4" stroke="white"/>
<path d="M50.0022 50L8.27728 24.309C15.6597 12.3191 27.8433 4.08443 41.7212 1.70483L50.0022 50Z" fill="#EC3A70" stroke="white"/>
<path d="M50.0022 50L41.7211 1.70482C44.4565 1.23579 47.2268 1 50.0022 1V50Z" fill="#E40045" stroke="white"/>
</svg>
